<svg width="24" height="24" fill="none" xmlns="http://www.w3.org/2000/svg"><path fill-rule="evenodd" clip-rule="evenodd" d="M22 6H2v2a4 4 0 110 8v2h20v-2a4 4 0 110-8V6zm-6.763 6.194a.907.907 0 01.763.893.92.92 0 01-.255.645.887.887 0 01-.632.268.876.876 0 01-.632-.268 1.008 1.008 0 01-.25-.506v.01c-.061-.789-.31-1.168-.766-1.63-.456-.474-.85-.706-1.585-.8h.01a.865.865 0 01-.529-.253.901.901 0 01-.264-.642.914.914 0 01.554-.841.876.876 0 01.975.198c.14.154.227.35.248.558.114.737.28 1.084.777 1.59.498.515.86.684 1.586.778zm-4.071.547a.904.904 0 01.195-.294.887.887 0 01.632-.268.876.876 0 01.633.268.904.904 0 01.264.642.917.917 0 01-.554.841.876.876 0 01-.975-.198.904.904 0 01-.264-.643.9.9 0 01.069-.348zM9.219 13.93a.878.878 0 01-.344.066.885.885 0 01-.62-.272.913.913 0 010-1.268.884.884 0 01.62-.271.88.88 0 01.637.26.906.906 0 01.265.645.918.918 0 01-.265.645.89.89 0 01-.293.195z" fill="#C6973A"/></svg>