<svg width="83" height="24" fill="none" xmlns="http://www.w3.org/2000/svg"><path fill-rule="evenodd" clip-rule="evenodd" d="M67.503 4.446c.05-.353.101-.707.101-1.06C67.604 1.212 65.987 0 63.865 0c-1.92 0-3.94 1.162-3.94 3.739s1.92 3.688 4.142 3.688c1.213 0 2.375-.353 3.234-1.162L65.987 4.8c-.454.354-1.06.556-1.819.556-.606 0-1.414-.303-1.616-.91h4.951zM62.501 2.78c.05-.556.707-.859 1.314-.859.657 0 1.263.253 1.263.859H62.5zm-5.861-.707l-.556 2.02-1.263-3.89h-1.617l-1.263 3.941-.556-2.02-.657-1.971H48l2.577 7.174h2.476l1.01-2.678 1.01 2.678H57.5L60.076.152h-2.78l-.656 1.92zM35.368 15.335c.91.151 1.769.555 2.426 1.212a4.377 4.377 0 01.05 6.165 4.33 4.33 0 01-6.164 0 4.81 4.81 0 01-1.213-2.426v.05c-.303-3.789-1.515-5.608-3.739-7.83-2.223-2.274-4.143-3.386-7.73-3.84h.05a4.243 4.243 0 01-2.576-1.213 4.33 4.33 0 010-6.165 4.33 4.33 0 016.164 0 4.65 4.65 0 011.212 2.678c.556 3.537 1.365 5.205 3.79 7.63 2.425 2.476 4.193 3.284 7.73 3.739zm21.525 5.558h2.627V10.787h-2.627v10.106zm-9.095-7.125v10.055h2.627v-3.587c.405.454 1.062.758 1.971.758 2.072 0 3.436-1.516 3.436-3.689 0-2.273-1.162-3.587-3.234-3.688-.808-.05-1.718.202-2.324.91l-.101-.759h-2.375zm3.992 2.021c.808 0 1.414.556 1.414 1.567 0 .96-.606 1.566-1.414 1.566-.91 0-1.415-.808-1.415-1.667 0-.708.505-1.465 1.415-1.465zm16.926-2.02v7.124h-2.425l-.101-.758c-.607.707-1.516.96-2.325.91-2.122-.102-3.233-1.618-3.233-3.69 0-2.121 1.364-3.738 3.435-3.738 1.011 0 1.718.353 2.072.91l.152-.759h2.425zm-5.558 3.587c0 1.01.606 1.566 1.415 1.566.91 0 1.465-.707 1.465-1.566 0-.96-.556-1.567-1.465-1.567-.758-.05-1.415.556-1.415 1.567zm8.084 6.518h2.78l4.345-10.106h-2.83l-.657 1.668-.859 2.476-.758-2.476-.606-1.718h-2.83l2.83 6.82-1.415 3.336zm8.084-4.346c0-.707.506-1.414 1.516-1.414s1.516.707 1.516 1.414c0 .708-.505 1.415-1.516 1.415-1.01 0-1.516-.707-1.516-1.415zm.152-8.74h2.779l-.05 6.77h-2.678l-.051-6.77zm-63.006 5.76a4.33 4.33 0 000 6.164 4.33 4.33 0 006.164 0 4.33 4.33 0 000-6.165 4.33 4.33 0 00-6.165 0zM8.69 19.63a4.345 4.345 0 11-8.69 0 4.345 4.345 0 018.69 0z" fill="#fff"/></svg>