<svg width="24" height="24" viewBox="0 0 24 24" fill="none" xmlns="http://www.w3.org/2000/svg">
<path fill-rule="evenodd" clip-rule="evenodd" d="M22 6.00005L2 6.00005L2 8.00005C4.20914 8.00005 6 9.79091 6 12C6 14.2092 4.20914 16 2 16L2 18L22 18L22 16C19.7909 16 18 14.2092 18 12C18 9.79091 19.7909 8.00005 22 8.00004V6.00005ZM15.2367 12.1945C15.4232 12.2261 15.5994 12.3103 15.7342 12.4472C15.9024 12.6165 15.9979 12.8465 16 13.0871C16.002 13.3277 15.9103 13.5593 15.7449 13.7315C15.6623 13.8166 15.5639 13.8841 15.4554 13.9302C15.3468 13.9763 15.2304 14 15.1128 14C14.9951 14 14.8787 13.9763 14.7702 13.9302C14.6617 13.8841 14.5632 13.8166 14.4806 13.7315C14.3517 13.5908 14.2654 13.4154 14.2319 13.2262L14.2319 13.2368C14.1696 12.4475 13.9211 12.0684 13.4652 11.6053C13.0093 11.1315 12.6155 10.9 11.8797 10.8053L11.89 10.8053C11.6905 10.7855 11.5038 10.6963 11.3615 10.5528C11.2778 10.4689 11.2113 10.3689 11.166 10.2586C11.1206 10.1484 11.0972 10.0301 11.0972 9.91059C11.0972 9.7911 11.1206 9.6728 11.166 9.56256C11.2113 9.45232 11.2778 9.35233 11.3615 9.2684C11.4441 9.1834 11.5426 9.1159 11.651 9.06983C11.7595 9.02377 11.8759 9.00005 11.9935 9.00005C12.1111 9.00005 12.2275 9.02377 12.336 9.06983C12.4445 9.1159 12.5429 9.1834 12.6255 9.2684C12.7656 9.42213 12.8529 9.61785 12.8742 9.82622C12.9884 10.5631 13.154 10.9104 13.6513 11.4156C14.1487 11.9314 14.5114 12.0998 15.2367 12.1945ZM11.1658 12.7413C11.2112 12.6311 11.2777 12.5311 11.3614 12.4472C11.444 12.3621 11.5424 12.2946 11.6509 12.2485C11.7595 12.2024 11.8759 12.1786 11.9935 12.1786C12.1112 12.1786 12.2276 12.2024 12.3361 12.2485C12.4446 12.2946 12.5431 12.3621 12.6257 12.4472C12.7094 12.5311 12.7759 12.6311 12.8213 12.7413C12.8666 12.8515 12.89 12.9698 12.89 13.0893C12.89 13.2088 12.8666 13.3271 12.8213 13.4374C12.7759 13.5476 12.7094 13.6476 12.6257 13.7315C12.5431 13.8166 12.4446 13.8841 12.3361 13.9302C12.2276 13.9763 12.1112 14 11.9935 14C11.8759 14 11.7595 13.9763 11.6509 13.9302C11.5424 13.8841 11.444 13.8166 11.3614 13.7315C11.2777 13.6476 11.2112 13.5476 11.1658 13.4374C11.1204 13.3271 11.0971 13.2088 11.0971 13.0893C11.0971 12.9698 11.1204 12.8515 11.1658 12.7413ZM9.21922 13.929C9.10975 13.9738 8.99261 13.9961 8.87461 13.9945C8.64117 13.9901 8.41875 13.8926 8.25519 13.7234C8.09163 13.5541 8 13.3264 8 13.0892C8 12.852 8.09163 12.6243 8.25519 12.455C8.41875 12.2857 8.64117 12.1884 8.87461 12.184C8.99261 12.1825 9.10975 12.2047 9.21922 12.2495C9.32869 12.2943 9.42832 12.3607 9.51231 12.4449C9.59631 12.5291 9.663 12.6295 9.70852 12.7401C9.75404 12.8507 9.77748 12.9694 9.77748 13.0893C9.77748 13.2091 9.75404 13.3278 9.70852 13.4385C9.663 13.5491 9.59631 13.6494 9.51231 13.7336C9.42832 13.8178 9.32869 13.8842 9.21922 13.929Z" fill="#C6973A"/>
</svg>
