<svg width="83" height="24" viewBox="0 0 83 24" fill="none" xmlns="http://www.w3.org/2000/svg">
<path fill-rule="evenodd" clip-rule="evenodd" d="M67.5031 4.44632C67.5537 4.09263 67.6042 3.73895 67.6042 3.38526C67.6042 1.21263 65.9874 0 63.8652 0C61.9452 0 59.9242 1.16211 59.9242 3.73895C59.9242 6.31579 61.8442 7.42737 64.0673 7.42737C65.28 7.42737 66.4421 7.07368 67.301 6.26526L65.9873 4.8C65.5326 5.15368 64.9263 5.35579 64.1684 5.35579C63.5621 5.35579 62.7537 5.05263 62.5516 4.44632H67.5031ZM62.501 2.77895C62.5516 2.22316 63.2084 1.92 63.8147 1.92C64.4716 1.92 65.0779 2.17263 65.0779 2.77895H62.501ZM56.64 2.07157L56.0842 4.09262L54.821 0.202092H53.2042L51.9411 4.14314L51.3853 2.12209L50.7284 0.151566H48L50.5768 7.3263H53.0526L54.0632 4.64841L55.0737 7.3263H57.4989L60.0758 0.151566H57.2968L56.64 2.07157ZM35.3684 15.3347C36.2779 15.4863 37.1368 15.8905 37.7937 16.5474C39.5115 18.2653 39.5115 20.9937 37.8442 22.7116C36.1263 24.4295 33.3979 24.4295 31.68 22.7116C31.0231 22.0042 30.6189 21.1453 30.4673 20.2863V20.3368C30.1642 16.5474 28.9515 14.7284 26.7284 12.5053C24.5052 10.2316 22.5852 9.11999 18.9979 8.66526H19.0484C18.0884 8.56421 17.1789 8.15999 16.4715 7.45263C14.7536 5.73473 14.7536 3.00631 16.4715 1.28842C18.1894 -0.429473 20.9179 -0.429473 22.6357 1.28842C23.3431 2.04631 23.7473 3.00631 23.8484 3.96631C24.4042 7.50315 25.2126 9.17052 27.6379 11.5958C30.0631 14.0716 31.8315 14.88 35.3684 15.3347ZM56.8927 20.8926H59.5201V10.7874H56.8927V20.8926ZM47.7981 13.7684V23.8231H50.4254V20.2358C50.8296 20.6905 51.4865 20.9937 52.396 20.9937C54.4675 20.9937 55.8317 19.4779 55.8317 17.3053C55.8317 15.0316 54.6696 13.7179 52.5981 13.6168C51.7896 13.5663 50.8802 13.8189 50.2738 14.5263L50.1728 13.7684H47.7981ZM51.7896 15.7895C52.5981 15.7895 53.2044 16.3453 53.2044 17.3558C53.2044 18.3158 52.5981 18.9221 51.7896 18.9221C50.8802 18.9221 50.3749 18.1137 50.3749 17.2547C50.3749 16.5474 50.8802 15.7895 51.7896 15.7895ZM68.716 13.7684V20.8926H66.2907L66.1896 20.1347C65.5833 20.8421 64.6739 21.0947 63.8654 21.0442C61.7433 20.9431 60.6317 19.4274 60.6317 17.3558C60.6317 15.2337 61.996 13.6168 64.0675 13.6168C65.0781 13.6168 65.7854 13.9705 66.1391 14.5263L66.2907 13.7684H68.716ZM63.1581 17.3558C63.1581 18.3663 63.7644 18.9221 64.5728 18.9221C65.4823 18.9221 66.0381 18.2147 66.0381 17.3558C66.0381 16.3958 65.4823 15.7895 64.5728 15.7895C63.8149 15.7389 63.1581 16.3453 63.1581 17.3558ZM71.2424 23.8737H74.0214L78.3666 13.7684H75.5371L74.8803 15.4358L74.0214 17.9116L73.2635 15.4358L72.6572 13.7179H69.8277L72.6572 20.5389L71.2424 23.8737ZM79.3265 19.5284C79.3265 18.821 79.8317 18.1137 80.8422 18.1137C81.8528 18.1137 82.358 18.821 82.358 19.5284C82.358 20.2358 81.8528 20.9431 80.8422 20.9431C79.8317 20.9431 79.3265 20.2358 79.3265 19.5284ZM79.478 10.7874H82.257L82.2065 17.5579H79.5286L79.478 10.7874ZM16.4715 16.5474C14.7536 18.2652 14.7536 20.9937 16.4715 22.7116C18.1894 24.4295 20.9179 24.4295 22.6357 22.7116C24.3536 20.9937 24.3536 18.2652 22.6357 16.5474C20.9179 14.8295 18.1894 14.8295 16.4715 16.5474ZM8.69053 19.6295C8.69053 22.0293 6.74509 23.9747 4.34527 23.9747C1.94544 23.9747 0 22.0293 0 19.6295C0 17.2296 1.94544 15.2842 4.34527 15.2842C6.74509 15.2842 8.69053 17.2296 8.69053 19.6295Z" fill="white"/>
</svg>
